<svg width="13px" height="13px" viewBox="0 0 13 13" version="1.1" xmlns="http://www.w3.org/2000/svg" xmlns:xlink="http://www.w3.org/1999/xlink">
    <title>Arrow Top Right</title>
    <g id="Arrow-Top-Right" transform="translate(1.000000, 1.000000)">
        <path d="M0.103329745,10.4696553 L9.87487302,0.698181818 L3.80599738,0.698181818 C3.61320004,0.69818181 3.45690646,0.541888233 3.45690646,0.349090909 C3.45690646,0.156293585 3.61320004,0 3.80599737,0 L10.7175785,0 C10.9103758,-8.42747227e-09 11.0666694,0.156293585 11.0666694,0.349090909 L11.0666694,7.26074182 C11.0666694,7.45353914 10.9103758,7.60983273 10.7175784,7.60983273 C10.5247811,7.60983273 10.3684875,7.45353914 10.3684875,7.26074182 L10.3684875,1.19179636 L0.597014078,10.9633396 C0.46128405,11.1002636 0.24025365,11.1012319 0.103329723,10.9655018 C-0.0335942042,10.8297717 -0.0345625823,10.6087413 0.101167594,10.4718174 C0.101885136,10.4710935 0.102605848,10.4703728 0.103329702,10.4696553 Z" id="Shape"></path>
    </g>
</svg>
