<?xml version="1.0" encoding="UTF-8"?>
<svg width="11px" height="11px" viewBox="0 0 11 11" version="1.1" xmlns="http://www.w3.org/2000/svg" xmlns:xlink="http://www.w3.org/1999/xlink">
    <!-- Generator: Sketch 50.2 (55047) - http://www.bohemiancoding.com/sketch -->
    <title>Shape</title>
    <desc>Created with Sketch.</desc>
    <defs></defs>
    <g id="Page-1" stroke="none" stroke-width="1" fill="none" fill-rule="evenodd">
        <g id="Artboard-Copy-2" fill="#000000" fill-rule="nonzero" stroke="#000000">
            <g id="check-ui">
                <path d="M10.1592333,1.35923333 L6.01846667,5.5 L10.1592333,9.64076667 C10.2981898,9.78463893 10.2962025,10.0133311 10.1547668,10.1547668 C10.0133311,10.2962025 9.78463893,10.2981898 9.64076667,10.1592333 L5.5,6.01846667 L1.35923333,10.1592333 C1.21536107,10.2981898 0.986668915,10.2962025 0.845233189,10.1547668 C0.703797463,10.0133311 0.70181019,9.78463893 0.840766667,9.64076667 L4.98153333,5.5 L0.840766667,1.35923333 C0.745449252,1.26717269 0.707222048,1.13084477 0.740777709,1.00264731 C0.774333371,0.874449856 0.874449856,0.774333371 1.00264731,0.740777709 C1.13084477,0.707222048 1.26717269,0.745449252 1.35923333,0.840766667 L5.5,4.98153333 L9.64076667,0.840766667 C9.73282731,0.745449252 9.86915523,0.707222048 9.99735269,0.740777709 C10.1255501,0.774333371 10.2256666,0.874449856 10.2592223,1.00264731 C10.292778,1.13084477 10.2545507,1.26717269 10.1592333,1.35923333 Z" id="Shape"></path>
            </g>
        </g>
    </g>
</svg>