<?xml version="1.0" encoding="UTF-8"?>
<svg width="30px" height="30px" viewBox="0 0 30 30" version="1.1" xmlns="http://www.w3.org/2000/svg" xmlns:xlink="http://www.w3.org/1999/xlink">
    <!-- Generator: Sketch 51.3 (57544) - http://www.bohemiancoding.com/sketch -->
    <title>Group 5</title>
    <desc>Created with Sketch.</desc>
    <defs>
        <polygon id="path-1" points="0 0.0702836879 19.972766 0.0702836879 19.972766 19.9999978 0 19.9999978"></polygon>
        <polygon id="path-3" points="0.0206557154 0.0762307692 1.9374239 0.0762307692 1.9374239 3.9266816 0.0206557154 3.9266816"></polygon>
        <polygon id="path-5" points="0.0513631842 0.02669446 3.96988235 0.02669446 3.96988235 1.92634107 0.0513631842 1.92634107"></polygon>
    </defs>
    <g id="Page-6" stroke="none" stroke-width="1" fill="none" fill-rule="evenodd">
        <g id="Group-5">
            <g id="Group-Copy-3" fill="#F9F9F9">
                <circle id="Oval" cx="15" cy="15" r="15"></circle>
            </g>
            <g id="Group-24" transform="translate(5.000000, 5.000000)">
                <g id="Group-3">
                    <mask id="mask-2" fill="white">
                        <use xlink:href="#path-1"></use>
                    </mask>
                    <g id="Clip-2"></g>
                    <path d="M5.71838298,4.77803546 C5.66398582,4.66973759 5.60292199,4.44101418 5.46114894,4.28619149 C5.0468227,3.83385106 4.61036879,3.40023404 4.16306383,2.9800922 C3.83533333,2.6723617 3.28029787,2.69094326 2.96334752,2.98519858 C2.63334752,3.29158156 2.56689362,3.82505674 2.87887943,4.17058865 C3.32916312,4.66902837 3.80859574,5.14434752 4.30653901,5.5952695 C4.57185816,5.83562411 4.92221277,5.81909929 5.24008511,5.66647518 C5.55689362,5.51441844 5.69249645,5.23399291 5.71838298,4.77803546 M10.8609362,18.2513688 C10.8609362,17.9451986 10.8685248,17.6387447 10.8591631,17.3329291 C10.844695,16.8597376 10.5061844,16.510305 10.0426383,16.4751986 C9.59526241,16.4413688 9.15157447,16.7598794 9.12504965,17.2201631 C9.08590071,17.9000922 9.08519149,18.5860496 9.1271773,19.265766 C9.15590071,19.7306596 9.58434043,20.0276099 10.0522128,19.9979645 C10.5085248,19.9690284 10.8464681,19.6127872 10.8597305,19.1344894 C10.8678156,18.840305 10.8612199,18.545766 10.8609362,18.2513688 M18.1685248,10.919383 L18.1685248,10.9183191 C18.4982411,10.9183191 18.8288794,10.934773 19.1573191,10.9142766 C19.6067518,10.8862624 19.9507943,10.5217943 19.9718582,10.0859078 C19.9923546,9.66101418 19.6679574,9.22704255 19.2288085,9.203 C18.5490922,9.16569504 17.8644113,9.16292908 17.184766,9.19995035 C16.7088794,9.22583688 16.407461,9.63321277 16.4306525,10.1005177 C16.4527801,10.5452695 16.7862553,10.8886028 17.2503688,10.9159787 C17.5554043,10.9339929 17.8623546,10.919383 18.1685248,10.919383 M15.2596596,14.3145603 C14.7888085,14.3593121 14.4907234,14.4958369 14.3368936,14.8508723 C14.1787376,15.2161206 14.2512199,15.550305 14.5166099,15.8297376 C14.9058298,16.2395248 15.3098014,16.6355532 15.7128511,17.0320071 C16.1000142,17.4127872 16.6709362,17.4449149 17.0132057,17.1134255 C17.3971773,16.7416525 17.3918582,16.2186028 16.982,15.792078 C16.5902979,15.3844894 16.196539,14.9771135 15.7780284,14.5980355 C15.6139149,14.4494539 15.3799433,14.3779645 15.2596596,14.3145603 M10.8607943,1.83491489 C10.8607943,1.52867376 10.8698723,1.22214894 10.8587376,0.916262411 C10.8417872,0.452574468 10.4855461,0.0993829787 10.0237021,0.0717234043 C9.59519149,0.0460496454 9.15405674,0.36229078 9.12802837,0.806404255 C9.08739007,1.49803546 9.08540426,2.19604965 9.13022695,2.8871844 C9.16093617,3.35853191 9.58348936,3.64753901 10.0548369,3.61831915 C10.5108652,3.5900922 10.8469645,3.23434752 10.8597305,2.7536383 C10.8678156,2.44760993 10.8612908,2.14115603 10.8607943,1.83491489 M1.76980142,10.9210851 C1.76980142,10.9186738 1.76980142,10.9161915 1.76980142,10.9137801 C2.11143262,10.9137801 2.45483688,10.9362624 2.79412766,10.9081773 C3.23412766,10.8717234 3.5507234,10.5098085 3.56320567,10.0807305 C3.57646809,9.62796454 3.27958865,9.22789362 2.82285106,9.20200709 C2.14270922,9.16342553 1.45760284,9.16207801 0.777319149,9.19711348 C0.306609929,9.22129787 -0.0186382979,9.63973759 0.000794326241,10.0865461 C0.0203687943,10.5343475 0.378099291,10.8941348 0.85093617,10.9181773 C1.15646809,10.9336383 1.46341844,10.9210851 1.76980142,10.9210851 M2.67051064,16.3361206 C2.7068227,16.8171135 2.84739007,17.1110142 3.18285106,17.255766 C3.54604255,17.4125035 3.90561702,17.3739929 4.20022695,17.0907305 C4.61739007,16.6898085 5.03029787,16.2834965 5.42739007,15.8627872 C5.81668085,15.4504468 5.80951773,14.9183191 5.43653901,14.5634965 C5.09731915,14.2408014 4.52958865,14.2606596 4.15668085,14.6217234 C3.76646809,14.9996667 3.37299291,15.3760496 3.00923404,15.7787447 C2.84405674,15.9615816 2.74724823,16.2061915 2.67051064,16.3361206 M15.249234,5.76179433 C15.3254043,5.73321277 15.5400142,5.71229078 15.6649787,5.59541135 C16.1644113,5.1281773 16.6615745,4.65328369 17.1090922,4.13746809 C17.4199433,3.77917021 17.341078,3.30229078 17.0082411,2.98463121 C16.7198723,2.7094539 16.1763972,2.65640426 15.8661844,2.93867376 C15.3691631,3.39115603 14.8964681,3.87321277 14.4432766,4.36987943 C14.2008652,4.63555319 14.1942695,4.97321277 14.3628511,5.29867376 C14.5251206,5.61207801 14.7900142,5.76016312 15.249234,5.76179433 M5.14363121,10.0333546 C5.13306383,12.7037801 7.30228369,14.8823617 9.97831206,14.8886738 C12.6370355,14.894844 14.816539,12.7351277 14.8263972,10.0845603 C14.8364681,7.39385106 12.7085248,5.24030496 10.012,5.21214894 C7.35029787,5.18434752 5.15419858,7.35917021 5.14363121,10.0333546" id="Fill-1" fill="#FFFFFF" mask="url(#mask-2)"></path>
                </g>
                <path d="M5.00003971,9.98253933 C5.01095321,7.21901889 7.27898541,4.97154224 10.0278712,5.00027242 C12.8127203,5.02936905 15.010364,7.25485832 14.9999632,10.0354556 C14.9897822,12.7745701 12.7388893,15.0064357 9.99307982,14.9999861 C7.22939853,14.9935364 4.9891262,12.7421753 5.00003971,9.98253933" id="Fill-4" fill="#000000"></path>
                <path d="M14.9832183,6 C14.5325656,5.99837467 14.2727235,5.85082307 14.1134363,5.53854793 C13.9480949,5.21425948 13.954497,4.87781639 14.1924188,4.61309978 C14.637087,4.11822247 15.1008223,3.63790244 15.5885655,3.18705034 C15.8929439,2.90579777 16.4261282,2.95858563 16.7090735,3.23284221 C17.0357202,3.54935735 17.1130326,4.02451872 16.8080974,4.38152575 C16.3689963,4.89548301 15.8811835,5.36859506 15.3911439,5.83421645 C15.2685297,5.9506748 15.057956,5.97152141 14.9832183,6" id="Fill-6" fill="#000000"></path>
                <path d="M3,15.9929454 C3.07554722,15.8635251 3.17085401,15.6198732 3.33339922,15.4377524 C3.69151537,15.0366344 4.07888687,14.6616549 4.46311638,14.2852624 C4.83016972,13.925542 5.38909345,13.9058323 5.72305125,14.2272635 C6.09031406,14.5806259 6.09729624,15.1107402 5.71411405,15.5214658 C5.32318164,15.9404567 4.91667897,16.3451775 4.50598698,16.7445999 C4.21594711,17.0266824 3.86195045,17.0651128 3.50432306,16.9089891 C3.17413564,16.7648042 3.03574878,16.4720545 3,15.9929454" id="Fill-8" fill="#000000"></path>
                <path d="M1.98645807,10.9945367 C1.64264124,10.9945367 1.29810796,11.0088507 0.955087187,10.9911401 C0.424356274,10.963806 0.0228253414,10.5535518 0.000933785781,10.0428568 C-0.0209577698,9.53345581 0.344193377,9.05632197 0.872456515,9.02874525 C1.63603397,8.9887954 2.40510422,8.99033194 3.16844286,9.03432529 C3.68110329,9.0638429 4.01433257,9.52003136 3.99952592,10.0363063 C3.98543572,10.5255707 3.63007607,10.938251 3.13620257,10.9798183 C2.75536911,11.011762 2.36991852,10.9861262 1.98645807,10.9861262 C1.98645807,10.9889566 1.98645807,10.9917062 1.98645807,10.9945367" id="Fill-10" fill="#000000"></path>
                <g id="Group-14" transform="translate(9.000000, 0.000000)">
                    <mask id="mask-4" fill="white">
                        <use xlink:href="#path-3"></use>
                    </mask>
                    <g id="Clip-13"></g>
                    <path d="M1.93387692,1.99017692 C1.93410769,2.32233077 1.94126154,2.65471538 1.93249231,2.98663846 C1.91864615,3.50802308 1.55410769,3.89386923 1.05941538,3.92448462 C0.548184615,3.95617692 0.0898769231,3.64271538 0.0566461538,3.13148462 C0.00795384615,2.38186923 0.0101846154,1.62479231 0.0541846154,0.874638462 C0.0824923077,0.392946154 0.560953846,0.0499461538 1.02572308,0.0777923077 C1.52664615,0.107792308 1.91303077,0.490869231 1.93133846,0.993792308 C1.94349231,1.32556154 1.93364615,1.65802308 1.93387692,1.99017692" id="Fill-12" fill="#000000" mask="url(#mask-4)"></path>
                </g>
                <path d="M14.9919533,14 C15.1105958,14.0628397 15.3413751,14.1336925 15.5032494,14.2810213 C15.9160498,14.6566536 16.3045062,15.060402 16.6907939,15.4643614 C17.0950599,15.8870883 17.1003765,16.4055508 16.7216438,16.7739431 C16.3839743,17.1024808 15.820912,17.0706392 15.4390313,16.6932497 C15.0414809,16.3003962 14.6430211,15.9078942 14.2590419,15.5016856 C13.9972728,15.2247412 13.9257795,14.8935325 14.0818476,14.5315365 C14.2335086,14.1797327 14.5275266,14.0443533 14.9919533,14" id="Fill-15" fill="#000000"></path>
                <g id="Group-19" transform="translate(16.000000, 9.000000)">
                    <mask id="mask-6" fill="white">
                        <use xlink:href="#path-5"></use>
                    </mask>
                    <g id="Clip-18"></g>
                    <path d="M1.97462745,1.92027692 C1.63603922,1.92027692 1.2965098,1.93612308 0.959176471,1.91658462 C0.445921569,1.88689231 0.0772156863,1.51450769 0.052745098,1.03212308 C0.0270980392,0.5252 0.360431373,0.0834307692 0.886705882,0.0553538462 C1.63823529,0.0152 2.3954902,0.0181230769 3.14717647,0.0585846154 C3.63282353,0.0847384615 3.99156863,0.555430769 3.96890196,1.01627692 C3.94560784,1.48904615 3.56513725,1.88435385 3.06803922,1.91473846 C2.70490196,1.93689231 2.33917647,1.91904615 1.97462745,1.91904615 L1.97462745,1.92027692 Z" id="Fill-17" fill="#000000" mask="url(#mask-6)"></path>
                </g>
                <path d="M10.996868,18.0169767 C10.9970284,18.3508362 11.0044888,18.6848566 10.9953438,19.0184748 C10.9803427,19.5608859 10.5980163,19.9649597 10.0819639,19.9976942 C9.55275549,20.0313134 9.06814914,19.6945584 9.03566022,19.1673483 C8.98809003,18.3965197 8.98897244,17.6186938 9.03317342,16.8475435 C9.06325575,16.3255612 9.5651093,15.964356 10.0710541,16.0028009 C10.5954493,16.0425326 10.9783372,16.4388048 10.994702,16.9754251 C11.005291,17.322314 10.9967075,17.669766 10.996868,18.0169767" id="Fill-20" fill="#000000"></path>
                <path d="M6,5.00641179 C5.97446515,5.45902825 5.84070453,5.737399 5.52819998,5.88834155 C5.21464606,6.03984733 4.86905115,6.05625107 4.60733646,5.81765763 C4.11615794,5.37003973 3.64323859,4.89820343 3.19907218,4.40341599 C2.89132481,4.06041592 2.95687591,3.53084973 3.28239273,3.22671174 C3.5950372,2.93461255 4.14253229,2.91616714 4.46581045,3.22164277 C4.9070386,3.63870607 5.33756312,4.06914581 5.74626058,4.51817175 C5.88610759,4.67186 5.94634184,4.89890746 6,5.00641179" id="Fill-22" fill="#000000"></path>
            </g>
        </g>
    </g>
</svg>