<?xml version="1.0" encoding="UTF-8"?>
<svg width="38px" height="38px" viewBox="0 0 38 38" version="1.1" xmlns="http://www.w3.org/2000/svg" xmlns:xlink="http://www.w3.org/1999/xlink">
    <!-- Generator: Sketch 51.3 (57544) - http://www.bohemiancoding.com/sketch -->
    <title>Group 4</title>
    <desc>Created with Sketch.</desc>
    <defs>
        <filter x="-23.3%" y="-16.7%" width="146.7%" height="146.7%" filterUnits="objectBoundingBox" id="filter-1">
            <feOffset dx="0" dy="2" in="SourceAlpha" result="shadowOffsetOuter1"></feOffset>
            <feGaussianBlur stdDeviation="2" in="shadowOffsetOuter1" result="shadowBlurOuter1"></feGaussianBlur>
            <feColorMatrix values="0 0 0 0 0   0 0 0 0 0   0 0 0 0 0  0 0 0 0.5 0" type="matrix" in="shadowBlurOuter1" result="shadowMatrixOuter1"></feColorMatrix>
            <feMerge>
                <feMergeNode in="shadowMatrixOuter1"></feMergeNode>
                <feMergeNode in="SourceGraphic"></feMergeNode>
            </feMerge>
        </filter>
        <polygon id="path-2" points="0 0.0144901448 17.9624769 0.0144901448 17.9624769 17.9999754 0 17.9999754"></polygon>
        <polygon id="path-4" points="0 0.0144901448 17.9624769 0.0144901448 17.9624769 17.9999754 0 17.9999754"></polygon>
    </defs>
    <g id="Page-6" stroke="none" stroke-width="1" fill="none" fill-rule="evenodd">
        <g id="Group-4" filter="url(#filter-1)" transform="translate(4.000000, 2.000000)">
            <g id="Group-Copy-2" fill="#F9F9F9">
                <circle id="Oval" cx="15" cy="15" r="15"></circle>
            </g>
            <g id="Group-7-Copy" transform="translate(6.000000, 6.000000)">
                <g id="Group-3">
                    <mask id="mask-3" fill="white">
                        <use xlink:href="#path-2"></use>
                    </mask>
                    <g id="Clip-2"></g>
                    <path d="M9.37912846,17.9988646 C9.95215154,17.9423723 10.52919,17.9112185 11.0969515,17.8214954 C11.5728438,17.7463108 12.0481823,17.6339492 12.5060746,17.4839262 C15.0564669,16.6483108 16.9161438,15.0429185 17.9267054,12.5251338 C17.9908131,12.3654877 17.9678285,12.0904338 17.86599,11.9697646 C17.7821515,11.8704185 17.4995515,11.8583723 17.3420515,11.9134108 C14.4117208,12.9375415 11.7009208,12.5033954 9.23589,10.6509185 C6.16619769,8.34401077 4.64242846,4.51921846 6.04552846,0.646587692 C6.10472077,0.483272308 6.07626692,0.207664615 5.97075923,0.0903876923 C5.88408231,-0.00591230769 5.60037462,-0.00279692308 5.44114385,0.0563261538 C4.10256692,0.553126154 2.97957462,1.37219538 2.09196692,2.48189538 C0.355866923,4.65248769 -0.234256154,7.16071846 0.0811592308,9.88432615 C0.615897692,14.5007031 4.74087462,18.0722492 9.37912846,17.9988646" id="Fill-1" fill="#FFFFFF" mask="url(#mask-3)"></path>
                </g>
                <g id="Group-6">
                    <mask id="mask-5" fill="white">
                        <use xlink:href="#path-4"></use>
                    </mask>
                    <g id="Clip-5"></g>
                    <path d="M9.37912846,17.9988646 C4.74087462,18.0722492 0.615897692,14.5007031 0.0811592308,9.88432615 C-0.234256154,7.16071846 0.355866923,4.65248769 2.09196692,2.48189538 C2.97957462,1.37219538 4.10256692,0.553126154 5.44114385,0.0563261538 C5.60037462,-0.00279692308 5.88408231,-0.00591230769 5.97075923,0.0903876923 C6.07626692,0.207664615 6.10472077,0.483272308 6.04552846,0.646587692 C4.64242846,4.51921846 6.16619769,8.34401077 9.23589,10.6509185 C11.7009208,12.5033954 14.4117208,12.9375415 17.3420515,11.9134108 C17.4995515,11.8583723 17.7821515,11.8704185 17.86599,11.9697646 C17.9678285,12.0904338 17.9908131,12.3654877 17.9267054,12.5251338 C16.9161438,15.0429185 15.0564669,16.6483108 12.5060746,17.4839262 C12.0481823,17.6339492 11.5728438,17.7463108 11.0969515,17.8214954 C10.52919,17.9112185 9.95215154,17.9423723 9.37912846,17.9988646" id="Fill-4" fill="#000000" mask="url(#mask-5)"></path>
                </g>
            </g>
        </g>
    </g>
</svg>