<?xml version="1.0" encoding="UTF-8"?>
<svg width="11px" height="18px" viewBox="0 0 11 18" version="1.1" xmlns="http://www.w3.org/2000/svg" xmlns:xlink="http://www.w3.org/1999/xlink">

    <defs>
        <polygon id="path-1" points="0 0.0002 10.1519 0.0002 10.1519 17.1602 0 17.1602"></polygon>
    </defs>
    <g id="Page-6" stroke="none" stroke-width="1" fill="none" fill-rule="evenodd">
        <g id="Group-3">
            <mask id="mask-2" fill="white">
                <use xlink:href="#path-1"></use>
            </mask>
            <g id="Clip-2"></g>
            <path d="M6.9599,16.6802 C6.9599,16.8092 6.9119,16.9202 6.8159,17.0162 C6.7199,17.1122 6.6069,17.1602 6.4799,17.1602 L3.5999,17.1602 C3.4719,17.1602 3.3599,17.1122 3.2639,17.0162 C3.1679,16.9202 3.1199,16.8092 3.1199,16.6802 L3.1199,13.7992 C3.1199,13.6722 3.1679,13.5612 3.2639,13.4632 C3.3599,13.3672 3.4719,13.3212 3.5999,13.3212 L6.4799,13.3212 C6.6069,13.3212 6.7199,13.3672 6.8159,13.4632 C6.9119,13.5612 6.9599,13.6722 6.9599,13.7992 L6.9599,16.6802 Z M6.7919,5.0162 C6.7919,4.5042 6.6269,4.0972 6.2999,3.7922 C5.9719,3.4882 5.5679,3.3362 5.0879,3.3362 C4.5429,3.3362 4.1199,3.5132 3.8159,3.8642 C3.5119,4.2162 3.3599,4.6242 3.3599,5.0882 L3.3599,5.4962 C3.3599,5.6242 3.3119,5.7362 3.2159,5.8322 C3.1199,5.9282 3.0079,5.9762 2.8799,5.9762 L0.4799,5.9762 C0.3519,5.9762 0.2399,5.9282 0.1439,5.8322 C0.0479,5.7362 -0.0001,5.6242 -0.0001,5.4962 L-0.0001,5.1362 C-0.0001,4.4322 0.1359,3.7682 0.4079,3.1442 C0.6799,2.5202 1.0439,1.9762 1.4999,1.5122 C1.9559,1.0482 2.4919,0.6802 3.1079,0.4082 C3.7239,0.1372 4.3829,0.0002 5.0879,0.0002 C5.7919,0.0002 6.4519,0.1202 7.0679,0.3602 C7.6839,0.6002 8.2199,0.9362 8.6759,1.3682 C9.1319,1.8002 9.4919,2.3122 9.7559,2.9042 C10.0199,3.4962 10.1519,4.1442 10.1519,4.8482 C10.1519,5.3452 10.0799,5.8052 9.9359,6.2282 C9.7919,6.6522 9.6069,7.0402 9.3839,7.3922 C9.1599,7.7442 8.9079,8.0562 8.6279,8.3282 C8.3479,8.6002 8.0799,8.8322 7.8239,9.0242 C7.5999,9.2002 7.4159,9.3602 7.2719,9.5042 C7.1279,9.6482 7.0159,9.8012 6.9359,9.9602 C6.8559,10.1202 6.7999,10.3002 6.7679,10.5002 C6.7349,10.7002 6.7199,10.9442 6.7199,11.2322 L6.7199,11.4712 C6.7199,11.6002 6.6719,11.7112 6.5759,11.8092 C6.4799,11.9052 6.3679,11.9512 6.2399,11.9512 L3.8399,11.9512 C3.7109,11.9512 3.5999,11.9052 3.5039,11.8092 C3.4079,11.7112 3.3599,11.6002 3.3599,11.4712 L3.3599,11.2322 C3.3599,11.0402 3.3559,10.8282 3.3479,10.5962 C3.3389,10.3642 3.3559,10.1162 3.3959,9.8522 C3.4359,9.5882 3.5039,9.3202 3.5999,9.0482 C3.6959,8.7762 3.8399,8.5132 4.0319,8.2562 C4.3039,7.9202 4.6159,7.6372 4.9679,7.4042 C5.3189,7.1732 5.6239,6.9362 5.8799,6.6962 C6.1359,6.4562 6.3519,6.1842 6.5279,5.8802 C6.7039,5.5762 6.7919,5.2882 6.7919,5.0162 Z" id="Fill-1" fill="#010202" mask="url(#mask-2)"></path>
        </g>
    </g>
</svg>
