<?xml version="1.0" encoding="UTF-8"?>
<svg width="15px" height="15px" viewBox="0 0 15 15" version="1.1" xmlns="http://www.w3.org/2000/svg" xmlns:xlink="http://www.w3.org/1999/xlink">
    <!-- Generator: Sketch 51.3 (57544) - http://www.bohemiancoding.com/sketch -->
    <title>Group 3</title>
    <desc>Created with Sketch.</desc>
    <defs>
        <polygon id="path-1" points="0 0 15 0 15 15 0 15"></polygon>
    </defs>
    <g id="Page-6" stroke="none" stroke-width="1" fill="none" fill-rule="evenodd">
        <g id="Group-3">
            <mask id="mask-2" fill="white">
                <use xlink:href="#path-1"></use>
            </mask>
            <g id="Clip-2"></g>
            <path d="M7.74868307,10.44 C7.61574257,10.2 7.48403301,10.2 7.35109251,10.44 L4.76736938,14.7 C4.72305588,14.78 4.65166191,14.85 4.55195654,14.91 C4.45225117,14.97 4.28115183,15 4.03865852,15 L0.692989397,15 C0.384025839,15 0.173536723,14.9 0.0639839074,14.7 C-0.0467998383,14.50125 -0.0135647146,14.27 0.162458348,14.01 L4.56918957,7.53 C4.65658563,7.41 4.70582285,7.305 4.71813216,7.215 C4.7279796,7.125 4.67874238,7.01 4.56918957,6.87 L0.726224521,0.99 C0.548970527,0.73 0.516966334,0.5 0.626519149,0.3 C0.737302895,0.1 0.946561081,0 1.25675557,0 L4.3365437,0 C4.57903701,0 4.75013635,0.03 4.85107265,0.09 C4.94954709,0.15 5.02094106,0.22 5.06525456,0.3 L7.35109251,4.05 C7.48403301,4.29 7.61574257,4.29 7.74868307,4.05 L10.0332901,0.3 C10.0788345,0.22 10.1502285,0.15 10.2499339,0.09 C10.3484083,0.03 10.5195076,0 10.7632319,0 L13.84302,0 C14.1519836,0 14.3624727,0.1 14.4720255,0.3 C14.5828092,0.5 14.5495741,0.73 14.3735511,0.99 L10.4653467,6.87 C10.354563,7.01 10.3040948,7.125 10.3151732,7.215 C10.3262515,7.305 10.3767197,7.41 10.4653467,7.53 L14.8363809,14.01 C15.0136349,14.27 15.04687,14.50125 14.9360863,14.7 C14.8265335,14.9 14.6160444,15 14.3070808,15 L10.9614117,15 C10.7189184,15 10.547819,14.97 10.4481137,14.91 C10.3484083,14.85 10.2770143,14.78 10.2327008,14.7 L7.74868307,10.44 Z" id="Fill-1" fill="#010202" mask="url(#mask-2)"></path>
        </g>
    </g>
</svg>